<svg width="759" height="135" viewBox="0 0 759 135" fill="none" xmlns="http://www.w3.org/2000/svg">
<path d="M245.037 93.6747C239.704 93.6747 235.398 93.0321 232.121 91.7469C228.844 90.3975 226.434 88.1806 224.892 85.0961C223.414 81.9474 222.675 77.7063 222.675 72.3728V51.4565H214.675V40.1791H222.675V25.9136H237.037V40.1791H252.459V51.4565H237.037V72.9512C237.037 75.4573 237.679 77.3851 238.965 78.7345C240.314 80.0197 242.21 80.6623 244.652 80.6623H252.459V93.6747H245.037ZM291.269 94.8314C285.1 94.8314 279.831 93.5783 275.461 91.0722C271.156 88.5661 267.879 85.2889 265.63 81.2406C263.381 77.128 262.256 72.662 262.256 67.8426V65.6256C262.256 60.6777 263.413 56.1474 265.726 52.0349C268.104 47.858 271.445 44.5487 275.75 42.1068C280.12 39.6007 285.293 38.3477 291.269 38.3477C297.245 38.3477 302.418 39.6007 306.788 42.1068C311.157 44.5487 314.499 47.858 316.812 52.0349C319.19 56.1474 320.378 60.6777 320.378 65.6256V67.8426C320.378 72.662 319.222 77.128 316.908 81.2406C314.659 85.2889 311.382 88.5661 307.077 91.0722C302.771 93.5783 297.502 94.8314 291.269 94.8314ZM291.269 81.8189C295.703 81.8189 299.076 80.4052 301.39 77.5778C303.767 74.6862 304.956 71.0877 304.956 66.7823C304.956 62.3484 303.735 58.6857 301.293 55.794C298.916 52.8381 295.574 51.3601 291.269 51.3601C286.964 51.3601 283.622 52.8381 281.245 55.794C278.867 58.6857 277.678 62.3484 277.678 66.7823C277.678 71.0877 278.835 74.6862 281.148 77.5778C283.462 80.4052 286.835 81.8189 291.269 81.8189ZM334.033 93V40.1791H346.274V53.5771C348.331 43.5527 354.05 38.5405 363.432 38.5405H364.106C372.267 38.5405 377.665 42.3639 380.3 50.0107C382.999 42.3639 388.428 38.5405 396.589 38.5405H397.264C403.24 38.5405 407.803 40.5967 410.951 44.7093C414.1 48.8219 415.674 54.8944 415.674 62.9268V93H400.252V62.0593C400.252 59.1676 399.481 56.8222 397.939 55.0229C396.461 53.2237 394.34 52.324 391.577 52.324C388.814 52.324 386.629 53.2558 385.023 55.1193C383.416 56.9828 382.613 59.3925 382.613 62.3484V93H367.094V62.0593C367.094 59.1676 366.323 56.8222 364.781 55.0229C363.303 53.2237 361.215 52.324 358.516 52.324C355.688 52.324 353.471 53.2558 351.865 55.1193C350.259 56.9828 349.455 59.3925 349.455 62.3484V93H334.033ZM446.75 94.3494C441.031 94.3494 436.404 92.8715 432.87 89.9156C429.4 86.9596 427.665 82.7828 427.665 77.3851C427.665 73.5295 428.661 70.3808 430.653 67.939C432.645 65.4329 435.44 63.6015 439.039 62.4448C442.637 61.2239 446.782 60.6134 451.473 60.6134H461.015V60.4207C461.015 55.0229 458.316 52.324 452.919 52.324C451.505 52.324 449.641 52.3883 447.328 52.5168C445.015 52.5811 442.605 52.6774 440.099 52.806C437.657 52.8702 435.472 52.9666 433.545 53.0951V40.0827C435.794 39.8899 438.557 39.7292 441.834 39.6007C445.111 39.408 448.131 39.3116 450.894 39.3116C458.991 39.3116 465.16 41.0466 469.401 44.5165C473.706 47.9223 475.859 53.2879 475.859 60.6134V93H463.618V83.072C462.461 86.7347 460.469 89.53 457.642 91.4578C454.814 93.3856 451.184 94.3494 446.75 94.3494ZM451.376 83.6503C453.883 83.6503 456.067 82.9435 457.931 81.5298C459.794 80.1161 460.823 77.4172 461.015 73.4331V69.192H451.376C448.678 69.192 446.589 69.8667 445.111 71.2162C443.697 72.5656 442.991 74.3327 442.991 76.5176C442.991 78.6381 443.697 80.3731 445.111 81.7225C446.589 83.0077 448.678 83.6503 451.376 83.6503ZM515.547 94.8314C510.985 94.8314 507.001 94.0924 503.595 92.6144C500.253 91.0722 497.458 89.0159 495.209 86.4456C492.96 83.8752 491.289 80.9836 490.197 77.7706C489.104 74.4934 488.558 71.1198 488.558 67.6498V65.8184C488.558 60.999 489.554 56.5009 491.546 52.324C493.603 48.1472 496.623 44.7736 500.607 42.2032C504.655 39.6329 509.603 38.3477 515.451 38.3477C520.206 38.3477 524.415 39.2794 528.078 41.1429C531.74 42.9422 534.664 45.4804 536.849 48.7576C539.034 52.0349 540.255 55.794 540.512 60.0351H525.379C525.122 57.6575 524.158 55.6655 522.487 54.059C520.816 52.3883 518.471 51.5529 515.451 51.5529C511.531 51.5529 508.639 52.9666 506.776 55.794C504.912 58.5572 503.98 62.2199 503.98 66.7823C503.98 71.0877 504.848 74.654 506.583 77.4814C508.382 80.2446 511.37 81.6261 515.547 81.6261C518.632 81.6261 521.041 80.8229 522.776 79.2164C524.511 77.61 525.539 75.4894 525.861 72.8548H540.897C540.64 77.2244 539.387 81.0799 537.138 84.4214C534.953 87.6986 531.965 90.269 528.174 92.1325C524.447 93.9318 520.238 94.8314 515.547 94.8314ZM553.652 93V40.1791H565.894V58.1073C566.472 52.1312 568.303 47.5367 571.388 44.3238C574.536 41.1108 578.81 39.5043 584.207 39.5043H586.232V52.806H582.376C578.071 52.806 574.761 53.9626 572.448 56.276C570.199 58.5893 569.074 61.8665 569.074 66.1076V93H553.652ZM621.025 94.8314C616.527 94.8314 612.543 94.0603 609.073 92.5181C605.667 90.9758 602.807 88.9196 600.494 86.3492C598.181 83.7146 596.446 80.7908 595.289 77.5778C594.132 74.3006 593.554 70.9591 593.554 67.5534V65.6256C593.554 62.1557 594.132 58.7821 595.289 55.5048C596.446 52.2276 598.181 49.3038 600.494 46.7335C602.807 44.1631 605.603 42.139 608.88 40.661C612.221 39.1188 616.077 38.3477 620.446 38.3477C626.101 38.3477 630.856 39.6329 634.712 42.2032C638.632 44.7093 641.62 48.0187 643.676 52.1312C645.732 56.2438 646.761 60.6777 646.761 65.4329V70.6379H608.109C608.623 74.2364 609.908 77.0959 611.964 79.2164C614.085 81.2727 617.105 82.3009 621.025 82.3009C623.788 82.3009 626.069 81.7868 627.868 80.7587C629.732 79.6662 630.985 78.2847 631.628 76.6139H645.797C644.64 82.0117 641.845 86.4134 637.411 89.8192C633.041 93.1606 627.579 94.8314 621.025 94.8314ZM620.446 50.8782C617.105 50.8782 614.374 51.8421 612.253 53.7699C610.197 55.6334 608.88 58.3322 608.302 61.8665H632.013C631.499 58.3322 630.246 55.6334 628.254 53.7699C626.326 51.8421 623.724 50.8782 620.446 50.8782ZM681.655 94.735C676.708 94.735 672.338 93.5783 668.547 91.265C664.82 88.8874 661.896 85.6745 659.775 81.6261C657.655 77.5778 656.594 73.0154 656.594 67.939V65.722C656.594 60.6456 657.59 56.051 659.582 51.9385C661.575 47.8259 664.402 44.5808 668.065 42.2032C671.792 39.8256 676.129 38.6368 681.077 38.6368C688.788 38.6368 694.475 41.5606 698.138 47.4082V22.6363H713.656V93H701.415V81.9153C699.68 86.0922 697.11 89.273 693.704 91.4578C690.298 93.6426 686.282 94.735 681.655 94.735ZM685.511 81.8189C689.045 81.8189 692.098 80.6301 694.668 78.2525C697.238 75.875 698.523 72.5014 698.523 68.1317V64.5654C698.523 61.8022 697.913 59.4568 696.692 57.529C695.471 55.537 693.865 54.0269 691.873 52.9987C689.881 51.9706 687.728 51.4565 685.415 51.4565C681.495 51.4565 678.282 52.8702 675.776 55.6976C673.27 58.525 672.017 62.2199 672.017 66.7823C672.017 71.409 673.27 75.0717 675.776 77.7706C678.346 80.4695 681.591 81.8189 685.511 81.8189Z" fill="#7069FC"/>
<path d="M81.5 44L25 44" stroke="#7069FC" stroke-width="14" stroke-linecap="round" stroke-linejoin="round"/>
<path d="M118.5 21L62 21" stroke="#7069FC" stroke-width="14" stroke-linecap="round" stroke-linejoin="round"/>
<path d="M118.5 113H62" stroke="#7069FC" stroke-width="14" stroke-linecap="round" stroke-linejoin="round"/>
<line x1="75" y1="67" x2="7" y2="67" stroke="#7069FC" stroke-width="14" stroke-linecap="round" stroke-linejoin="round"/>
<line x1="88" y1="90" x2="20" y2="90" stroke="#7069FC" stroke-width="14" stroke-linecap="round" stroke-linejoin="round"/>
<path d="M177.967 63.4672C175.74 63.4672 173.935 65.2724 173.935 67.5C173.935 92.5537 153.554 112.935 128.5 112.935C103.448 112.935 83.0653 92.5537 83.0653 67.5C83.0653 42.4478 103.448 22.0653 128.5 22.0653C130.727 22.0653 132.533 20.2601 132.533 18.0328C132.533 15.8052 130.727 14 128.5 14C98.9998 14 75 37.9998 75 67.5C75 96.999 98.9998 121 128.5 121C157.999 121 182 96.999 182 67.5C182 65.2726 180.195 63.4672 177.967 63.4672Z" fill="#7069FC"/>
<circle cx="128.5" cy="67.5" r="53.5" fill="white"/>
<path d="M177.967 63.4672C175.74 63.4672 173.935 65.2724 173.935 67.5C173.935 92.5537 153.554 112.935 128.5 112.935C103.448 112.935 83.0653 92.5537 83.0653 67.5C83.0653 42.4478 103.448 22.0653 128.5 22.0653C130.727 22.0653 132.533 20.2601 132.533 18.0328C132.533 15.8052 130.727 14 128.5 14C98.9998 14 75 37.9998 75 67.5C75 96.999 98.9998 121 128.5 121C157.999 121 182 96.999 182 67.5C182 65.2726 180.195 63.4672 177.967 63.4672Z" fill="#7069FC"/>
<path d="M173.535 35.1844C171.961 33.6077 169.407 33.6049 167.833 35.1778L119.454 83.4285L101.999 64.4709C100.491 62.8337 97.9411 62.7275 96.3012 64.2356C94.6625 65.7438 94.5576 68.2951 96.0659 69.9337L116.364 91.9776C117.107 92.7856 118.147 93.2547 119.244 93.2775C119.274 93.2788 119.302 93.2788 119.33 93.2788C120.396 93.2788 121.422 92.8554 122.177 92.1026L173.527 40.8878C175.105 39.3152 175.108 36.7612 173.535 35.1844Z" fill="#7069FC"/>
</svg>
